<svg width="859" height="850" viewBox="0 0 859 850" fill="none" xmlns="http://www.w3.org/2000/svg">
<rect width="850" height="850" rx="128" fill="white"/>
<path d="M55 801V809H63H221.438H229.438V801V50V42H221.438H63H55V50V801ZM637.909 805.214L640.255 809H644.709H828H843.188L834.597 796.475L659.864 541.708L824.235 302.799L832.859 290.264H817.645H645.744H641.299L638.952 294.038L560.993 419.346L483.761 294.066L481.417 290.264H476.951H291.588H276.314L285.012 302.82L452.74 544.932L275.727 796.395L266.854 809H282.268H455.204H459.568L461.93 805.331L551.643 666.011L637.909 805.214Z" fill="black" stroke="white" stroke-width="16"/>
</svg>
